<svg width="220" height="220" viewBox="0 0 220 220" fill="none" xmlns="http://www.w3.org/2000/svg">
<rect x="2.5" y="2.5" width="215" height="215" rx="107.5" stroke="white" stroke-width="5"/>
<g clip-path="url(#clip0_26_21)">
<path d="M111 147L88.2 76.7H101.6L118.5 130.8H114L130.6 76.7H140.7L157.3 130.8H152.7L169.7 76.7H183.1L160.2 147H150.1L133.4 93H137.8L121.2 147H111Z" fill="white"/>
<path fill-rule="evenodd" clip-rule="evenodd" d="M49 77C49 55.8123 55.8061 36.029 67.325 19.7434C80.3107 13.5057 94.7937 10 110 10C164.676 10 210 55.3238 210 110C210 131.188 203.194 150.971 191.675 167.257C178.689 173.494 164.206 177 149 177C120.05 177 93.7219 164.293 75.3554 144.22C73.7077 146.084 71.7598 147.612 69.5 149C65.656 151.328 59.2948 152.5 54 152.5C49.358 152.5 43.554 150.863 40 149C36.5185 147.06 31.821 142.259 29.5 139L45 123.5C46.3056 125.518 49.1867 128.914 51 130C52.8858 131.009 54.2515 131.5 56.5 131.5C59 131 59.5 130.5 61 129C61.6655 128.335 61.8881 127.226 61.9626 125.822C53.7244 111.33 49 94.6525 49 77ZM191.675 167.257C225.381 151.066 249 116.47 249 77C249 22.3238 203.676 -23 149 -23C115.511 -23 85.5315 -5.99716 67.325 19.7434C33.619 35.9339 10 70.5301 10 110C10 164.676 55.3238 210 110 210C143.489 210 173.469 192.997 191.675 167.257Z" fill="white"/>
<path d="M55.2 148C50.9333 148 47.1667 147.2 43.9 145.6C40.7 143.933 38.0333 141.7 35.9 138.9L45.1 130.1C46.3 131.833 47.7333 133.167 49.4 134.1C51.1333 134.967 53.0333 135.4 55.1 135.4C57.1667 135.4 58.9667 134.967 60.5 134.1C62.1 133.233 63.3 131.967 64.1 130.3C64.9667 128.633 65.4 126.6 65.4 124.2V76.7H79.1V123.4C79.1 128.333 78.1 132.667 76.1 136.4C74.1667 140.067 71.4 142.933 67.8 145C64.2667 147 60.0667 148 55.2 148Z" fill="white"/>
</g>
<defs>
<clipPath id="clip0_26_21">
<rect x="10" y="10" width="200" height="200" rx="99" fill="white"/>
</clipPath>
</defs>
</svg>
