<svg width="573" height="99" viewBox="0 0 573 99" fill="none" xmlns="http://www.w3.org/2000/svg">
<path d="M573 72.5801C525.25 75.0811 477.5 77.5821 429.75 84.0401C382 90.4981 334.25 100.912 286.5 97.4101C238.75 93.9081 191 76.4911 143.25 70.6701C95.5 64.8491 47.75 70.6251 0 76.4001V6.10352e-05C47.75 6.10352e-05 95.5 6.10352e-05 143.25 6.10352e-05C191 6.10352e-05 238.75 6.10352e-05 286.5 6.10352e-05C334.25 6.10352e-05 382 6.10352e-05 429.75 6.10352e-05C477.5 6.10352e-05 525.25 6.10352e-05 573 6.10352e-05V72.5801Z" fill="white"/>
</svg>
