<svg width="573" height="98" viewBox="0 0 573 98" fill="none" xmlns="http://www.w3.org/2000/svg">
<path d="M573 97.41C525.25 93.499 477.5 89.588 429.75 76.4C382 63.212 334.25 40.747 286.5 30.56C238.75 20.373 191 22.465 143.25 28.65C95.5 34.835 47.75 45.112 0 55.39V3.05176e-05C47.75 3.05176e-05 95.5 3.05176e-05 143.25 3.05176e-05C191 3.05176e-05 238.75 3.05176e-05 286.5 3.05176e-05C334.25 3.05176e-05 382 3.05176e-05 429.75 3.05176e-05C477.5 3.05176e-05 525.25 3.05176e-05 573 3.05176e-05V97.41Z" fill="white"/>
</svg>
