<svg width="573" height="161" viewBox="0 0 573 161" fill="none" xmlns="http://www.w3.org/2000/svg">
<path d="M573 126.06C525.25 111.269 477.5 96.478 429.75 108.87C382 121.262 334.25 160.838 286.5 160.44C238.75 160.042 191 119.671 143.25 106.96C95.5 94.249 47.75 109.2 0 124.15V1.52588e-05C47.75 1.52588e-05 95.5 1.52588e-05 143.25 1.52588e-05C191 1.52588e-05 238.75 1.52588e-05 286.5 1.52588e-05C334.25 1.52588e-05 382 1.52588e-05 429.75 1.52588e-05C477.5 1.52588e-05 525.25 1.52588e-05 573 1.52588e-05V126.06Z" fill="white"/>
</svg>
